<svg version="1.1" xmlns="http://www.w3.org/2000/svg" xmlns:xlink="http://www.w3.org/1999/xlink" width="35.78606" height="99.63153" viewBox="0,0,35.78606,99.63153"><g transform="translate(-251.71394,-130.71003)"><g data-paper-data="{&quot;isPaintingLayer&quot;:true}" fill-rule="evenodd" stroke-miterlimit="10" stroke-dasharray="" stroke-dashoffset="0" style="mix-blend-mode: normal"><g><path d="M264.00922,201.1c0.29442,0.4 0.92005,1.3 0.0368,4.7c-0.88325,3.4 -3.42258,4.1 -3.71699,4.1c-1.14086,0.1 -2.53933,0.1 -4.08501,-1.3c-4.48983,-4 -4.52663,-17.1 -3.09136,-19.2c1.39847,-2.1 2.0241,6 4.04821,10.9c0.88325,2.2 1.9505,3 2.83375,3.5c1.25126,0.6 3.64339,-3.2 3.97461,-2.7z" fill="#ffab19" stroke="#001026" stroke-width="1.2" stroke-linecap="round" stroke-linejoin="round"/><path d="M254.88234,193c0.58883,2.7 1.72969,6.5 1.72969,6.5c0,0 -1.36167,-0.9 -2.13451,0.8c-0.62563,1.3 -0.47842,3.5 -0.40482,4.2c-0.47842,-1.3 -1.06726,-3.1 -1.43527,-6.6c-0.36802,-3.5 0,-7.7 0.73604,-8.3c0.73604,-0.4 0.92005,1.1 1.50888,3.4z" fill="#ffffff" stroke="none" stroke-width="1" stroke-linecap="butt" stroke-linejoin="miter"/></g><path d="M265.84931,211.5c-0.66243,1.2 -2.94415,5.6 -5.8515,8.1l-0.14721,0.1c-0.14721,0.1 -0.22081,0.6 -0.14721,1c0.62563,2.4 1.76649,7.2 -0.25761,8.9c-1.9505,1.7 -5.59389,-12.4 -4.04821,-16.1c0.69924,-1.4 1.32487,-0.7 1.65609,-0.3c0.18401,0.2 0.36802,0.2 0.55203,0.1c0.44162,-0.4 1.25126,-1.2 1.8769,-2.1c1.58248,-2.2 1.9505,-3.1 2.68654,-4.6c0.73604,-1.5 2.42893,-5.2 3.7906,-2c1.17766,2.7 0.51523,5.7 -0.11041,6.9z" fill="#ffab19" stroke="#001026" stroke-width="1.2" stroke-linecap="round" stroke-linejoin="round"/><path d="M271.70081,190.7c0.18401,0.4 2.42893,7.6 3.16496,5.8c0.88325,-2.1 2.09771,-6.2 3.42258,-2.9c1.32487,3.3 -1.17766,8.9 -2.24492,10.4c-2.53933,3.1 -4.60024,-2.8 -5.04186,-4.4c-0.44162,-1.6 -1.21446,-4.3 -1.21446,-6.9c0.0368,-2.8 1.28807,-3.5 1.9137,-2z" fill="#ffab19" stroke="#001026" stroke-width="1.2" stroke-linecap="round" stroke-linejoin="round"/><g><path d="M271.73762,214c0.77284,1.9 2.46573,5.8 2.46573,5.8c0,0 5.26267,-2.5 5.26267,4.7c0,4.3 -2.64974,5.3 -6.21952,4.4c-0.22081,-0.1 -0.44162,-0.3 -0.62563,-0.7c-0.80964,-1.9 -3.12816,-7.5 -4.60024,-11.4c-2.17131,-5.8 -3.97461,-9.6 -3.97461,-9.6c-3.12816,-8.3 -0.58883,-11.8 0.40482,-16.6c0.92005,-4.1 1.32487,-3.3 3.53298,-2.1c1.25126,0.5 1.9873,0.8 2.79694,0.7c1.21446,-0.1 0.99365,4.7 0.66243,7.2c0,0 -0.51523,3.7 -0.99365,5.6c-0.58883,2.3 -1.03045,3.8 -1.47208,4.7z" fill="#ffab19" stroke="#001026" stroke-width="1.2" stroke-linecap="round" stroke-linejoin="round"/><path d="M268.64626,206.6c0,0 -0.55203,-1.2 -1.14086,-2.7c-0.73604,-1.8 -1.47208,-3.3 -0.73604,-6.4c0.66243,-2.4 1.28807,-5.6 2.94415,-2.7c1.58248,2.7 0.88325,5.2 0.88325,5.2c-0.80964,4.5 -1.9505,6.6 -1.9505,6.6z" fill="#ffffff" stroke="none" stroke-width="1" stroke-linecap="butt" stroke-linejoin="miter"/></g><path d="M263.08917,198.4c0.80964,2.8 2.06091,6.3 0.47842,9.2c-2.17131,3.3 -3.97461,-6.7 -4.34262,-10.2c-0.33122,-3.1 0.62563,-5.1 1.43527,-6.8c1.58248,-3.1 2.90735,-5.9 4.37943,-4.4c1.8401,1.8 0.51523,5.8 -0.40482,7.6c-0.55203,1.1 -1.10406,2.3 -1.50888,3c-0.11041,0.5 -0.14721,1.1 -0.0368,1.6z" fill="#ffab19" stroke="#001026" stroke-width="1.2" stroke-linecap="round" stroke-linejoin="round"/><g><path d="M274.68177,131c0.11041,-0.2 0.29442,-0.1 0.33122,0.3l0.95685,10.7c0,0 2.35532,4.7 3.05456,8c1.17766,5.5 1.21446,10 1.21446,10c0,0 2.61294,2.1 3.05456,7.8c0.44162,5.7 -1.17766,16.5 -8.09642,20.2c-6.91876,3.7 -12.47585,-1.4 -15.08878,-12.8c-2.61294,-11.4 1.50888,-25 1.28807,-24.2l-0.77284,-17.9c-0.0368,-0.4 0.14721,-0.7 0.29442,-0.5l4.45303,7.9c0,0 1.65609,-1.7 3.38578,-1.9c1.03045,-0.2 1.9137,0 2.76014,0.4z" fill="#ffab19" stroke="#001026" stroke-width="1.2" stroke-linecap="butt" stroke-linejoin="miter"/><path d="M280.12845,160.4c0,0 2.53933,1.8 2.98095,7.5c0.44162,5.7 -1.32487,16 -8.17002,19.6c-8.90606,5 -13.13828,-9.4 -10.67255,-20c2.46573,-10.7 6.69795,-1.6 9.78931,-2.2c2.64974,-0.5 2.94415,-6.8 6.07231,-4.9z" fill="#ffffff" stroke="none" stroke-width="1" stroke-linecap="butt" stroke-linejoin="miter"/><path d="M268.53585,171.1c0,-0.4 0.14721,-0.7 0.29442,-0.6c0.69924,0.7 2.68654,2.3 4.89465,2.7c1.9873,0.3 3.16496,0 3.71699,-0.3c0.18401,-0.1 0.33122,0.4 0.25761,0.9c-0.33122,2.7 -1.72969,10.2 -5.59389,9.6c-3.34897,-1 -3.68019,-7.4 -3.56978,-12.3z" fill="#ffffff" stroke="#001026" stroke-width="1.2" stroke-linecap="round" stroke-linejoin="round"/><path d="M286.9,161.5c-1.72969,3.8 -4.37943,3.9 -4.37943,3.9" fill="none" stroke="#001026" stroke-width="1.2" stroke-linecap="round" stroke-linejoin="round"/><path d="M286.42158,172.7c-2.31852,0.5 -3.75379,-1.4 -3.75379,-1.4" fill="none" stroke="#001026" stroke-width="1.2" stroke-linecap="round" stroke-linejoin="round"/><path d="M273.90893,162.7c0.77284,0 1.58248,0.2 1.61928,0.9c0.0368,1.4 -0.51523,4.2 -1.10406,4.3c-0.66243,0.2 -2.20811,-2.3 -2.20811,-3.9c-0.0368,-1.2 0.95685,-1.3 1.69289,-1.3z" fill="#001026" stroke="#001026" stroke-width="1.2" stroke-linecap="round" stroke-linejoin="round"/><path d="M257.34807,161.2c0,0 3.16496,2.8 4.45303,5.9" fill="none" stroke="#001026" stroke-width="1.2" stroke-linecap="round" stroke-linejoin="round"/><path d="M261.91151,170.6c-1.58248,1.7 -4.30582,0.6 -4.30582,0.6" fill="none" stroke="#001026" stroke-width="1.2" stroke-linecap="round" stroke-linejoin="round"/><g><path d="M278.25155,151c1.06726,4.5 1.10406,9.6 0.0736,11.4c-1.03045,1.8 -2.72334,-0.3 -3.8274,-4.8c-1.06726,-4.5 -1.10406,-9.6 -0.0736,-11.4c1.03045,-1.9 2.76014,0.3 3.8274,4.8z" fill="#ffffff" stroke="#001026" stroke-width="1.2" stroke-linecap="round" stroke-linejoin="round"/><path d="M278.10434,156.7c0,1.1 -0.29442,2 -0.66243,2c-0.36802,0 -0.66243,-0.9 -0.66243,-2c0,-1.1 0.29442,-2 0.66243,-2c0.36802,0 0.66243,0.9 0.66243,2" fill="#001026" stroke="none" stroke-width="1" stroke-linecap="butt" stroke-linejoin="miter"/></g><g><path d="M269.12468,153.8c1.10406,4.4 1.03045,9.8 0.0368,11.7c-1.21446,1.9 -2.83375,0.5 -3.9378,-3.9c-1.14086,-4.4 -1.21446,-10.1 -0.0736,-12.3c1.14086,-2.3 2.87055,0.1 3.97461,4.5z" fill="#ffffff" stroke="#001026" stroke-width="1.2" stroke-linecap="round" stroke-linejoin="round"/><path d="M268.90387,159.6c0,1.1 -0.29442,2 -0.66243,2c-0.36802,0 -0.66243,-0.9 -0.66243,-2c0,-1.1 0.29442,-2 0.66243,-2c0.36802,0.1 0.66243,0.9 0.66243,2" fill="#001026" stroke="none" stroke-width="1" stroke-linecap="butt" stroke-linejoin="miter"/></g></g></g></g></svg>