<svg version="1.1" xmlns="http://www.w3.org/2000/svg" xmlns:xlink="http://www.w3.org/1999/xlink" width="95.17898" height="34.66728" viewBox="0,0,95.17898,34.66728"><g transform="translate(-192.41051,-130.02798)"><g data-paper-data="{&quot;isPaintingLayer&quot;:true}" fill-rule="evenodd" stroke-miterlimit="10" stroke-dasharray="" stroke-dashoffset="0" style="mix-blend-mode: normal"><g><path d="M224.78949,154.41738c0.8,0.13583 2.5,0.44145 0.1,1.596c-2.4,1.15455 -9.3,1.39226 -10.1,1.39226c-3.1,0.03396 -6.9,0.03396 -11.1,-0.44145c-12.2,-1.3583 -12.3,-5.80673 -8.4,-6.51984c3.8,-0.71311 5.5,2.03745 11,3.70137c2.4,0.74706 5.3,1.01872 7.7,1.18851c3.4,0.20374 9.9,-1.08664 10.8,-0.91685z" fill="#ffab19" stroke="#001026" stroke-width="1.2" stroke-linecap="round" stroke-linejoin="round"/><path d="M199.98949,151.66682c1.6,0.91685 4.7,2.20724 4.7,2.20724c0,0 -3.7,-0.30562 -5.8,0.27166c-1.7,0.44145 -1.3,1.18851 -1.1,1.42621c-1.3,-0.44145 -2.9,-1.05268 -3.9,-2.24119c-1,-1.18851 0,-2.61473 2,-2.81847c2,-0.13583 2.5,0.37353 4.1,1.15455z" fill="#ffffff" stroke="none" stroke-width="1" stroke-linecap="butt" stroke-linejoin="miter"/></g><path d="M229.78949,157.94896c-1.8,0.40749 -8,1.90162 -15.9,2.75056l-0.4,0.03396c-0.4,0.03396 -0.6,0.20374 -0.4,0.33957c1.7,0.81498 4.8,2.44494 -0.7,3.02222c-5.3,0.57728 -15.2,-4.21073 -11,-5.46716c1.9,-0.4754 3.6,-0.2377 4.5,-0.10187c0.5,0.06791 1,0.06791 1.5,0.03396c1.2,-0.13583 3.4,-0.40749 5.1,-0.71311c4.3,-0.74706 5.3,-1.05268 7.3,-1.56204c2,-0.50936 6.6,-1.76579 10.3,-0.67915c3.2,0.91685 1.4,1.93558 -0.3,2.34307z" fill="#ffab19" stroke="#001026" stroke-width="1.2" stroke-linecap="round" stroke-linejoin="round"/><path d="M245.68949,150.8858c0.5,0.13583 6.6,2.58077 8.6,1.96953c2.4,-0.71311 5.7,-2.10536 9.3,-0.98477c3.6,1.1206 -3.2,3.02222 -6.1,3.53158c-6.9,1.05268 -12.5,-0.95081 -13.7,-1.49413c-1.2,-0.54332 -3.3,-1.46017 -3.3,-2.34307c0.1,-0.95081 3.5,-1.18851 5.2,-0.67915z" fill="#ffab19" stroke="#001026" stroke-width="1.2" stroke-linecap="round" stroke-linejoin="round"/><g><path d="M245.78949,158.7979c2.1,0.64519 6.7,1.96953 6.7,1.96953c0,0 14.3,-0.84894 14.3,1.596c0,1.46017 -7.2,1.79975 -16.9,1.49413c-0.6,-0.03396 -1.2,-0.10187 -1.7,-0.2377c-2.2,-0.64519 -8.5,-2.54681 -12.5,-3.87115c-5.9,-1.96953 -10.8,-3.25992 -10.8,-3.25992c-8.5,-2.81847 -1.6,-4.00698 1.1,-5.63694c2.5,-1.39226 3.6,-1.1206 9.6,-0.71311c3.4,0.16979 5.4,0.27166 7.6,0.2377c3.3,-0.03396 2.7,1.596 1.8,2.44494c0,0 -1.4,1.25643 -2.7,1.90162c-1.6,0.78102 -2.8,1.29038 -4,1.596z" fill="#ffab19" stroke="#001026" stroke-width="1.2" stroke-linecap="round" stroke-linejoin="round"/><path d="M237.38949,156.28504c0,0 -1.5,-0.40749 -3.1,-0.91685c-2,-0.61123 -4,-1.1206 -2,-2.17328c1.8,-0.81498 3.5,-1.90162 8,-0.91685c4.3,0.91685 2.4,1.76579 2.4,1.76579c-2.2,1.52809 -5.3,2.24119 -5.3,2.24119z" fill="#ffffff" stroke="none" stroke-width="1" stroke-linecap="butt" stroke-linejoin="miter"/></g><path d="M222.28949,153.50053c2.2,0.95081 5.6,2.13932 1.3,3.12409c-5.9,1.1206 -10.8,-2.27515 -11.8,-3.46366c-0.9,-1.05268 1.7,-1.73183 3.9,-2.30911c4.3,-1.05268 7.9,-2.00349 11.9,-1.49413c5,0.61123 1.4,1.96953 -1.1,2.58077c-1.5,0.37353 -3,0.78102 -4.1,1.01872c-0.3,0.16979 -0.4,0.37353 -0.1,0.54332z" fill="#ffab19" stroke="#001026" stroke-width="1.2" stroke-linecap="round" stroke-linejoin="round"/><g><path d="M253.78949,130.61318c0.3,-0.06791 0.8,-0.03396 0.9,0.10187l2.6,3.63345c0,0 6.4,1.596 8.3,2.7166c3.2,1.86766 3.3,3.39575 3.3,3.39575c0,0 7.1,0.71311 8.3,2.64868c1.2,1.93558 -3.2,5.60299 -22,6.85941c-18.8,1.25643 -33.9,-0.4754 -41,-4.34656c-7.1,-3.87115 4.1,-8.48937 3.5,-8.21771l-2.1,-6.07839c-0.1,-0.13583 0.4,-0.2377 0.8,-0.16979l12.1,2.68264c0,0 4.5,-0.57728 9.2,-0.64519c2.8,-0.06791 5.2,0 7.5,0.13583z" fill="#ffab19" stroke="#001026" stroke-width="1.2" stroke-linecap="butt" stroke-linejoin="miter"/><path d="M268.58949,140.59668c0,0 6.9,0.61123 8.1,2.54681c1.2,1.93558 -3.6,5.4332 -22.2,6.65567c-24.2,1.69787 -35.7,-3.192 -29,-6.7915c6.7,-3.63345 18.2,-0.54332 26.6,-0.74706c7.2,-0.16979 8,-2.30911 16.5,-1.66392z" fill="#ffffff" stroke="none" stroke-width="1" stroke-linecap="butt" stroke-linejoin="miter"/><path d="M237.08949,144.23013c0,-0.13583 0.4,-0.2377 0.8,-0.20374c1.9,0.2377 7.3,0.78102 13.3,0.91685c5.4,0.10187 8.6,0 10.1,-0.10187c0.5,-0.03396 0.9,0.13583 0.7,0.30562c-0.9,0.91685 -4.7,3.46366 -15.2,3.25992c-9.1,-0.33957 -10,-2.51285 -9.7,-4.17677z" fill="#ffffff" stroke="#001026" stroke-width="1.2" stroke-linecap="round" stroke-linejoin="round"/><path d="M286.98949,140.97021c-4.7,1.29038 -11.9,1.32434 -11.9,1.32434" fill="none" stroke="#001026" stroke-width="1.2" stroke-linecap="round" stroke-linejoin="round"/><path d="M285.68949,144.77345c-6.3,0.16979 -10.2,-0.4754 -10.2,-0.4754" fill="none" stroke="#001026" stroke-width="1.2" stroke-linecap="round" stroke-linejoin="round"/><path d="M251.68949,141.3777c2.1,0 4.3,0.06791 4.4,0.30562c0.1,0.4754 -1.4,1.42621 -3,1.46017c-1.8,0.06791 -6,-0.78102 -6,-1.32434c-0.1,-0.40749 2.6,-0.44145 4.6,-0.44145z" fill="#001026" stroke="#001026" stroke-width="1.2" stroke-linecap="round" stroke-linejoin="round"/><path d="M206.68949,140.86834c0,0 8.6,0.95081 12.1,2.00349" fill="none" stroke="#001026" stroke-width="1.2" stroke-linecap="round" stroke-linejoin="round"/><path d="M219.08949,144.06035c-4.3,0.57728 -11.7,0.20374 -11.7,0.20374" fill="none" stroke="#001026" stroke-width="1.2" stroke-linecap="round" stroke-linejoin="round"/><g><path d="M263.48949,137.40468c2.9,1.52809 3,3.25992 0.2,3.87115c-2.8,0.61123 -7.4,-0.10187 -10.4,-1.62996c-2.9,-1.52809 -3,-3.25992 -0.2,-3.87115c2.8,-0.64519 7.5,0.10187 10.4,1.62996z" fill="#ffffff" stroke="#001026" stroke-width="1.2" stroke-linecap="round" stroke-linejoin="round"/><path d="M263.08949,139.34025c0,0.37353 -0.8,0.67915 -1.8,0.67915c-1,0 -1.8,-0.30562 -1.8,-0.67915c0,-0.37353 0.8,-0.67915 1.8,-0.67915c1,0 1.8,0.30562 1.8,0.67915" fill="#001026" stroke="none" stroke-width="1" stroke-linecap="butt" stroke-linejoin="miter"/></g><g><path d="M238.68949,138.35549c3,1.49413 2.8,3.32783 0.1,3.97303c-3.3,0.64519 -7.7,0.16979 -10.7,-1.32434c-3.1,-1.49413 -3.3,-3.42971 -0.2,-4.17677c3.1,-0.78102 7.8,0.03396 10.8,1.52809z" fill="#ffffff" stroke="#001026" stroke-width="1.2" stroke-linecap="round" stroke-linejoin="round"/><path d="M238.08949,140.32502c0,0.37353 -0.8,0.67915 -1.8,0.67915c-1,0 -1.8,-0.30562 -1.8,-0.67915c0,-0.37353 0.8,-0.67915 1.8,-0.67915c1,0.03396 1.8,0.30562 1.8,0.67915" fill="#001026" stroke="none" stroke-width="1" stroke-linecap="butt" stroke-linejoin="miter"/></g></g></g></g></svg>