<svg version="1.1" xmlns="http://www.w3.org/2000/svg" xmlns:xlink="http://www.w3.org/1999/xlink" width="95.17898" height="22.99092" viewBox="0,0,95.17898,22.99092"><g transform="translate(-192.32101,-207.31935)"><g data-paper-data="{&quot;isPaintingLayer&quot;:true}" fill-rule="evenodd" stroke-miterlimit="10" stroke-dasharray="" stroke-dashoffset="0" style="mix-blend-mode: normal"><g><path d="M224.7,223.40982c0.8,0.08843 2.5,0.28739 0.1,1.03902c-2.4,0.75163 -9.3,0.90638 -10.1,0.90638c-3.1,0.02211 -6.9,0.02211 -11.1,-0.28739c-12.2,-0.88427 -12.3,-3.78027 -8.4,-4.24451c3.8,-0.46424 5.5,1.32641 11,2.40964c2.4,0.48635 5.3,0.6632 7.7,0.77374c3.4,0.13264 9.9,-0.70742 10.8,-0.59688z" fill="#ffab19" stroke="#001026" stroke-width="1.2" stroke-linecap="round" stroke-linejoin="round"/><path d="M199.9,221.61917c1.6,0.59688 4.7,1.43694 4.7,1.43694c0,0 -3.7,-0.19896 -5.8,0.17685c-1.7,0.28739 -1.3,0.77374 -1.1,0.92849c-1.3,-0.28739 -2.9,-0.68531 -3.9,-1.45905c-1,-0.77374 0,-1.70223 2,-1.83487c2,-0.08843 2.5,0.24318 4.1,0.75163z" fill="#ffffff" stroke="none" stroke-width="1" stroke-linecap="butt" stroke-linejoin="miter"/></g><path d="M229.7,225.70893c-1.8,0.26528 -8,1.23798 -15.9,1.79065l-0.4,0.02211c-0.4,0.02211 -0.6,0.13264 -0.4,0.22107c1.7,0.53056 4.8,1.59169 -0.7,1.96751c-5.3,0.37582 -15.2,-2.74125 -11,-3.5592c1.9,-0.3095 3.6,-0.15475 4.5,-0.06632c0.5,0.04421 1,0.04421 1.5,0.02211c1.2,-0.08843 3.4,-0.26528 5.1,-0.46424c4.3,-0.48635 5.3,-0.68531 7.3,-1.01691c2,-0.3316 6.6,-1.14955 10.3,-0.44214c3.2,0.59688 1.4,1.26009 -0.3,1.52537z" fill="#ffab19" stroke="#001026" stroke-width="1.2" stroke-linecap="round" stroke-linejoin="round"/><path d="M245.6,221.11071c0.5,0.08843 6.6,1.68012 8.6,1.2822c2.4,-0.46424 5.7,-1.37062 9.3,-0.6411c3.6,0.72953 -3.2,1.96751 -6.1,2.29911c-6.9,0.68531 -12.5,-0.61899 -13.7,-0.9727c-1.2,-0.35371 -3.3,-0.95059 -3.3,-1.52537c0.1,-0.61899 3.5,-0.77374 5.2,-0.44214z" fill="#ffab19" stroke="#001026" stroke-width="1.2" stroke-linecap="round" stroke-linejoin="round"/><g><path d="M245.7,226.2616c2.1,0.42003 6.7,1.2822 6.7,1.2822c0,0 14.3,-0.55267 14.3,1.03902c0,0.95059 -7.2,1.17166 -16.9,0.9727c-0.6,-0.02211 -1.2,-0.06632 -1.7,-0.15475c-2.2,-0.42003 -8.5,-1.65801 -12.5,-2.52018c-5.9,-1.2822 -10.8,-2.12226 -10.8,-2.12226c-8.5,-1.83487 -1.6,-2.60861 1.1,-3.66973c2.5,-0.90638 3.6,-0.72953 9.6,-0.46424c3.4,0.11053 5.4,0.17685 7.6,0.15475c3.3,-0.02211 2.7,1.03902 1.8,1.59169c0,0 -1.4,0.81795 -2.7,1.23798c-1.6,0.50846 -2.8,0.84006 -4,1.03902z" fill="#ffab19" stroke="#001026" stroke-width="1.2" stroke-linecap="round" stroke-linejoin="round"/><path d="M237.3,224.6257c0,0 -1.5,-0.26528 -3.1,-0.59688c-2,-0.39792 -4,-0.72953 -2,-1.41484c1.8,-0.53056 3.5,-1.23798 8,-0.59688c4.3,0.59688 2.4,1.14955 2.4,1.14955c-2.2,0.99481 -5.3,1.45905 -5.3,1.45905z" fill="#ffffff" stroke="none" stroke-width="1" stroke-linecap="butt" stroke-linejoin="miter"/></g><path d="M222.2,222.81294c2.2,0.61899 5.6,1.39273 1.3,2.03383c-5.9,0.72953 -10.8,-1.48116 -11.8,-2.2549c-0.9,-0.68531 1.7,-1.12745 3.9,-1.50326c4.3,-0.68531 7.9,-1.3043 11.9,-0.9727c5,0.39792 1.4,1.2822 -1.1,1.68012c-1.5,0.24318 -3,0.50846 -4.1,0.6632c-0.3,0.11053 -0.4,0.24318 -0.1,0.35371z" fill="#ffab19" stroke="#001026" stroke-width="1.2" stroke-linecap="round" stroke-linejoin="round"/><g><path d="M253.7,207.91294c0.3,-0.04421 0.8,-0.02211 0.9,0.06632l2.6,2.36543c0,0 6.4,1.03902 8.3,1.76855c3.2,1.21588 3.3,2.21068 3.3,2.21068c0,0 7.1,0.46424 8.3,1.72433c1.2,1.26009 -3.2,3.64763 -22,4.46558c-18.8,0.81795 -33.9,-0.3095 -41,-2.82967c-7.1,-2.52018 4.1,-5.52671 3.5,-5.34985l-2.1,-3.95712c-0.1,-0.08843 0.4,-0.15475 0.8,-0.11053l12.1,1.74644c0,0 4.5,-0.37582 9.2,-0.42003c2.8,-0.04421 5.2,0 7.5,0.08843z" fill="#ffab19" stroke="#001026" stroke-width="1.2" stroke-linecap="butt" stroke-linejoin="miter"/><path d="M268.5,214.41235c0,0 6.9,0.39792 8.1,1.65801c1.2,1.26009 -3.6,3.53709 -22.2,4.33294c-24.2,1.10534 -35.7,-2.07804 -29,-4.42136c6.7,-2.36543 18.2,-0.35371 26.6,-0.48635c7.2,-0.11053 8,-1.50326 16.5,-1.08323z" fill="#ffffff" stroke="none" stroke-width="1" stroke-linecap="butt" stroke-linejoin="miter"/><path d="M237,216.77778c0,-0.08843 0.4,-0.15475 0.8,-0.13264c1.9,0.15475 7.3,0.50846 13.3,0.59688c5.4,0.06632 8.6,0 10.1,-0.06632c0.5,-0.02211 0.9,0.08843 0.7,0.19896c-0.9,0.59688 -4.7,2.2549 -15.2,2.12226c-9.1,-0.22107 -10,-1.63591 -9.7,-2.71914z" fill="#ffffff" stroke="#001026" stroke-width="1.2" stroke-linecap="round" stroke-linejoin="round"/><path d="M286.9,214.65552c-4.7,0.84006 -11.9,0.86217 -11.9,0.86217" fill="none" stroke="#001026" stroke-width="1.2" stroke-linecap="round" stroke-linejoin="round"/><path d="M285.6,217.13148c-6.3,0.11053 -10.2,-0.3095 -10.2,-0.3095" fill="none" stroke="#001026" stroke-width="1.2" stroke-linecap="round" stroke-linejoin="round"/><path d="M251.6,214.9208c2.1,0 4.3,0.04421 4.4,0.19896c0.1,0.3095 -1.4,0.92849 -3,0.95059c-1.8,0.04421 -6,-0.50846 -6,-0.86217c-0.1,-0.26528 2.6,-0.28739 4.6,-0.28739z" fill="#001026" stroke="#001026" stroke-width="1.2" stroke-linecap="round" stroke-linejoin="round"/><path d="M206.6,214.5892c0,0 8.6,0.61899 12.1,1.3043" fill="none" stroke="#001026" stroke-width="1.2" stroke-linecap="round" stroke-linejoin="round"/><path d="M219,216.66724c-4.3,0.37582 -11.7,0.13264 -11.7,0.13264" fill="none" stroke="#001026" stroke-width="1.2" stroke-linecap="round" stroke-linejoin="round"/><g><path d="M263.4,212.3343c2.9,0.99481 3,2.12226 0.2,2.52018c-2.8,0.39792 -7.4,-0.06632 -10.4,-1.06113c-2.9,-0.99481 -3,-2.12226 -0.2,-2.52018c2.8,-0.42003 7.5,0.06632 10.4,1.06113z" fill="#ffffff" stroke="#001026" stroke-width="1.2" stroke-linecap="round" stroke-linejoin="round"/><path d="M263,213.59439c0,0.24318 -0.8,0.44214 -1.8,0.44214c-1,0 -1.8,-0.19896 -1.8,-0.44214c0,-0.24318 0.8,-0.44214 1.8,-0.44214c1,0 1.8,0.19896 1.8,0.44214" fill="#001026" stroke="none" stroke-width="1" stroke-linecap="butt" stroke-linejoin="miter"/></g><g><path d="M238.6,212.95329c3,0.9727 2.8,2.16647 0.1,2.5865c-3.3,0.42003 -7.7,0.11053 -10.7,-0.86217c-3.1,-0.9727 -3.3,-2.23279 -0.2,-2.71914c3.1,-0.50846 7.8,0.02211 10.8,0.99481z" fill="#ffffff" stroke="#001026" stroke-width="1.2" stroke-linecap="round" stroke-linejoin="round"/><path d="M238,214.23549c0,0.24318 -0.8,0.44214 -1.8,0.44214c-1,0 -1.8,-0.19896 -1.8,-0.44214c0,-0.24318 0.8,-0.44214 1.8,-0.44214c1,0.02211 1.8,0.19896 1.8,0.44214" fill="#001026" stroke="none" stroke-width="1" stroke-linecap="butt" stroke-linejoin="miter"/></g></g></g></g></svg>