<svg version="1.1" xmlns="http://www.w3.org/2000/svg" xmlns:xlink="http://www.w3.org/1999/xlink" width="26.54716" height="99.56659" viewBox="0,0,26.54716,99.56659"><g transform="translate(-192.32102,-130.77498)"><g data-paper-data="{&quot;isPaintingLayer&quot;:true}" fill-rule="evenodd" stroke-miterlimit="10" stroke-dasharray="" stroke-dashoffset="0" style="mix-blend-mode: normal"><g><path d="M201.49216,201.1c0.21577,0.4 0.67428,1.3 0.02697,4.7c-0.64731,3.4 -2.50831,4.1 -2.72408,4.1c-0.8361,0.1 -1.86101,0.1 -2.99379,-1.3c-3.29047,-4 -3.31744,-17.1 -2.26557,-19.2c1.0249,-2.1 1.48341,6 2.96682,10.9c0.64731,2.2 1.42947,3 2.07677,3.5c0.91702,0.6 2.67014,-3.2 2.91288,-2.7z" fill="#ffab19" stroke="#001026" stroke-width="1.2" stroke-linecap="round" stroke-linejoin="round"/><path d="M194.80333,193c0.43154,2.7 1.26764,6.5 1.26764,6.5c0,0 -0.99793,-0.9 -1.56432,0.8c-0.45851,1.3 -0.35062,3.5 -0.29668,4.2c-0.35062,-1.3 -0.78216,-3.1 -1.05187,-6.6c-0.26971,-3.5 0,-7.7 0.53942,-8.3c0.53942,-0.4 0.67428,1.1 1.10581,3.4z" fill="#ffffff" stroke="none" stroke-width="1" stroke-linecap="butt" stroke-linejoin="miter"/></g><path d="M202.84071,211.5c-0.48548,1.2 -2.15769,5.6 -4.2884,8.1l-0.10788,0.1c-0.10788,0.1 -0.16183,0.6 -0.10788,1c0.45851,2.4 1.29461,7.2 -0.1888,8.9c-1.42947,1.7 -4.09961,-12.4 -2.96682,-16.1c0.51245,-1.4 0.97096,-0.7 1.2137,-0.3c0.13486,0.2 0.26971,0.2 0.40457,0.1c0.32365,-0.4 0.91702,-1.2 1.37553,-2.1c1.15976,-2.2 1.42947,-3.1 1.96889,-4.6c0.53942,-1.5 1.78009,-5.2 2.77802,-2c0.86307,2.7 0.3776,5.7 -0.08091,6.9z" fill="#ffab19" stroke="#001026" stroke-width="1.2" stroke-linecap="round" stroke-linejoin="round"/><path d="M207.12911,190.7c0.13486,0.4 1.78009,7.6 2.31951,5.8c0.64731,-2.1 1.53735,-6.2 2.50831,-2.9c0.97096,3.3 -0.86307,8.9 -1.64524,10.4c-1.86101,3.1 -3.37139,-2.8 -3.69504,-4.4c-0.32365,-1.6 -0.89005,-4.3 -0.89005,-6.9c0.02697,-2.8 0.94399,-3.5 1.4025,-2z" fill="#ffab19" stroke="#001026" stroke-width="1.2" stroke-linecap="round" stroke-linejoin="round"/><g><path d="M207.15608,214c0.56639,1.9 1.80706,5.8 1.80706,5.8c0,0 3.85687,-2.5 3.85687,4.7c0,4.3 -1.94192,5.3 -4.55811,4.4c-0.16183,-0.1 -0.32365,-0.3 -0.45851,-0.7c-0.59336,-1.9 -2.29254,-7.5 -3.37139,-11.4c-1.59129,-5.8 -2.91288,-9.6 -2.91288,-9.6c-2.29254,-8.3 -0.43154,-11.8 0.29668,-16.6c0.67428,-4.1 0.97096,-3.3 2.58922,-2.1c0.91702,0.5 1.45644,0.8 2.0498,0.7c0.89005,-0.1 0.72822,4.7 0.48548,7.2c0,0 -0.3776,3.7 -0.72822,5.6c-0.43154,2.3 -0.75519,3.8 -1.07884,4.7z" fill="#ffab19" stroke="#001026" stroke-width="1.2" stroke-linecap="round" stroke-linejoin="round"/><path d="M204.89051,206.6c0,0 -0.40457,-1.2 -0.8361,-2.7c-0.53942,-1.8 -1.07884,-3.3 -0.53942,-6.4c0.48548,-2.4 0.94399,-5.6 2.15769,-2.7c1.15976,2.7 0.64731,5.2 0.64731,5.2c-0.59336,4.5 -1.42947,6.6 -1.42947,6.6z" fill="#ffffff" stroke="none" stroke-width="1" stroke-linecap="butt" stroke-linejoin="miter"/></g><path d="M200.81788,198.4c0.59336,2.8 1.51038,6.3 0.35062,9.2c-1.59129,3.3 -2.91288,-6.7 -3.18259,-10.2c-0.24274,-3.1 0.45851,-5.1 1.05187,-6.8c1.15976,-3.1 2.13072,-5.9 3.20956,-4.4c1.34855,1.8 0.3776,5.8 -0.29668,7.6c-0.40457,1.1 -0.80913,2.3 -1.10581,3c-0.08091,0.5 -0.10788,1.1 -0.02697,1.6z" fill="#ffab19" stroke="#001026" stroke-width="1.2" stroke-linecap="round" stroke-linejoin="round"/><g><path d="M209.31377,131c0.08091,-0.2 0.21577,-0.1 0.24274,0.3l0.70125,10.7c0,0 1.72615,4.7 2.2386,8c0.86307,5.5 0.89005,10 0.89005,10c0,0 1.91495,2.1 2.2386,7.8c0.32365,5.7 -0.86307,16.5 -5.93364,20.2c-5.07056,3.7 -9.1432,-1.4 -11.05815,-12.8c-1.91495,-11.4 1.10581,-25 0.94399,-24.2l-0.56639,-17.9c-0.02697,-0.4 0.10788,-0.7 0.21577,-0.5l3.2635,7.9c0,0 1.2137,-1.7 2.48134,-1.9c0.75519,-0.2 1.4025,0 2.02283,0.4z" fill="#ffab19" stroke="#001026" stroke-width="1.2" stroke-linecap="butt" stroke-linejoin="miter"/><path d="M213.30549,160.4c0,0 1.86101,1.8 2.18466,7.5c0.32365,5.7 -0.97096,16 -5.98758,19.6c-6.527,5 -9.62868,-9.4 -7.82162,-20c1.80706,-10.7 4.90874,-1.6 7.17431,-2.2c1.94192,-0.5 2.15769,-6.8 4.45023,-4.9z" fill="#ffffff" stroke="none" stroke-width="1" stroke-linecap="butt" stroke-linejoin="miter"/><path d="M204.8096,171.1c0,-0.4 0.10788,-0.7 0.21577,-0.6c0.51245,0.7 1.96889,2.3 3.58715,2.7c1.45644,0.3 2.31951,0 2.72408,-0.3c0.13486,-0.1 0.24274,0.4 0.1888,0.9c-0.24274,2.7 -1.26764,10.2 -4.09961,9.6c-2.45437,-1 -2.69711,-7.4 -2.6162,-12.3z" fill="#ffffff" stroke="#001026" stroke-width="1.2" stroke-linecap="round" stroke-linejoin="round"/><path d="M218.26817,161.5c-1.26764,3.8 -3.20956,3.9 -3.20956,3.9" fill="none" stroke="#001026" stroke-width="1.2" stroke-linecap="round" stroke-linejoin="round"/><path d="M217.91755,172.7c-1.69918,0.5 -2.75105,-1.4 -2.75105,-1.4" fill="none" stroke="#001026" stroke-width="1.2" stroke-linecap="round" stroke-linejoin="round"/><path d="M208.74738,162.7c0.56639,0 1.15976,0.2 1.18673,0.9c0.02697,1.4 -0.3776,4.2 -0.80913,4.3c-0.48548,0.2 -1.61827,-2.3 -1.61827,-3.9c-0.02697,-1.2 0.70125,-1.3 1.24067,-1.3z" fill="#001026" stroke="#001026" stroke-width="1.2" stroke-linecap="round" stroke-linejoin="round"/><path d="M196.61039,161.2c0,0 2.31951,2.8 3.2635,5.9" fill="none" stroke="#001026" stroke-width="1.2" stroke-linecap="round" stroke-linejoin="round"/><path d="M199.9548,170.6c-1.15976,1.7 -3.15562,0.6 -3.15562,0.6" fill="none" stroke="#001026" stroke-width="1.2" stroke-linecap="round" stroke-linejoin="round"/><g><path d="M211.92997,151c0.78216,4.5 0.80913,9.6 0.05394,11.4c-0.75519,1.8 -1.99586,-0.3 -2.80499,-4.8c-0.78216,-4.5 -0.80913,-9.6 -0.05394,-11.4c0.75519,-1.9 2.02283,0.3 2.80499,4.8z" fill="#ffffff" stroke="#001026" stroke-width="1.2" stroke-linecap="round" stroke-linejoin="round"/><path d="M211.82208,156.7c0,1.1 -0.21577,2 -0.48548,2c-0.26971,0 -0.48548,-0.9 -0.48548,-2c0,-1.1 0.21577,-2 0.48548,-2c0.26971,0 0.48548,0.9 0.48548,2" fill="#001026" stroke="none" stroke-width="1" stroke-linecap="butt" stroke-linejoin="miter"/></g><g><path d="M205.24114,153.8c0.80913,4.4 0.75519,9.8 0.02697,11.7c-0.89005,1.9 -2.07677,0.5 -2.88591,-3.9c-0.8361,-4.4 -0.89005,-10.1 -0.05394,-12.3c0.8361,-2.3 2.10374,0.1 2.91288,4.5z" fill="#ffffff" stroke="#001026" stroke-width="1.2" stroke-linecap="round" stroke-linejoin="round"/><path d="M205.07931,159.6c0,1.1 -0.21577,2 -0.48548,2c-0.26971,0 -0.48548,-0.9 -0.48548,-2c0,-1.1 0.21577,-2 0.48548,-2c0.26971,0.1 0.48548,0.9 0.48548,2" fill="#001026" stroke="none" stroke-width="1" stroke-linecap="butt" stroke-linejoin="miter"/></g></g></g></g></svg>